<svg xmlns="http://www.w3.org/2000/svg" width="52" height="57" viewBox="0 0 52 57"><g><g><g><path fill="#c6242b" d="M12.975 23.98v10.493h-.932V23.98H9.75v19.291a5.582 5.582 0 0 0 11.164 0V23.98z"/></g><g><path fill="#c6242b" d="M34.644 35.76v4.311h-.932V35.76H31.42v7.516a5.582 5.582 0 1 0 11.163 0V35.76z"/></g><g><path fill="none" stroke="#222329" stroke-miterlimit="20" d="M20.917 6.948v36.331a5.582 5.582 0 0 1-11.164 0V6.948v0H8.664c-.94 0-1.704-.763-1.704-1.704V1.47v0h16.75v3.774c0 .941-.763 1.704-1.703 1.704h-6.671v0"/></g><g><path fill="none" stroke="#222329" stroke-miterlimit="20" d="M42.587 6.948v36.331a5.582 5.582 0 0 1-11.163 0V6.948v0h-1.09c-.94 0-1.704-.763-1.704-1.704V1.47v0h16.75v3.774c0 .941-.762 1.704-1.703 1.704h-6.671v0"/></g><g><path fill="none" stroke="#222329" stroke-miterlimit="20" d="M46.887 14.59v0h3.99v35.828a5.112 5.112 0 0 1-5.11 5.113H6.582a5.113 5.113 0 0 1-5.113-5.113V14.59v0h3.992v0"/></g></g></g></svg>