<svg xmlns="http://www.w3.org/2000/svg" width="128" height="191" viewBox="0 0 128 191"><g><g><path fill="#fff" d="M62.861 190.78c35.184 0 64.549-19.764 64.549-56.92 0-22.4-10.846-40.32-33.862-45.327v-.527c14.55-6.588 25.926-20.555 25.926-37.157C119.474 16.328 94.87.78 62.332.78 24.766.78 5.719 25.551 4.396 61.127h22.487c0-21.873 11.11-40.583 35.449-40.583 19.047 0 33.333 10.278 33.333 30.042 0 20.028-16.667 30.568-35.714 30.568h-4.762c-1.587 0-3.174 0-5.026-.263v18.974c4.233-.527 8.73-.791 13.492-.791 22.221 0 39.946 12.386 39.946 35.84 0 22.399-18.783 36.102-40.74 36.102-25.66 0-39.153-16.866-39.946-41.11H.428c-.793 38.738 24.338 60.874 62.433 60.874z"/></g></g></svg>