<svg xmlns="http://www.w3.org/2000/svg" width="128" height="191" viewBox="0 0 128 191"><g><g><path fill="#fff" d="M60.873 190.62c44.209 0 66.447-31.086 66.447-63.244 0-43.681-27.597-65.12-61.357-65.12-12.86 0-27.06 4.288-35.367 13.667l-.535-.536L40.24 20.72h76.63V.62H23.094L5.411 99.238l19.559 1.072c8.842-10.72 20.63-17.955 35.367-17.955 25.721 0 42.87 18.223 42.87 43.145 0 30.014-18.488 45.021-40.19 45.021-22.775 0-38.583-14.739-39.923-34.302H.32c.804 34.302 27.597 54.401 60.553 54.401z"/></g></g></svg>