<svg xmlns="http://www.w3.org/2000/svg" width="71" height="30" viewBox="0 0 71 30"><g><g><g><path fill="#848798" d="M62.33 9.083l1.36-2.215c.651.448 1.25.72 2.078.72 1.4 0 2.595-.842 2.595-2.418 0-1.577-1.195-2.42-2.595-2.42-.829 0-1.427.273-2.079.721L62.33 1.256C63.173.672 64.341.21 65.85.21c2.948 0 5.231 1.807 5.231 4.96 0 3.152-2.283 4.959-5.231 4.959-1.509 0-2.677-.462-3.52-1.046zm-10.918.852L54.048 6.4c-1.4-.463-2.039-1.592-2.039-2.857 0-1.646 1.074-3.128 3.588-3.128h4.062v9.521h-2.581V6.4l-2.446 3.536zm4.538-7.238c-.788 0-1.264.297-1.264 1 0 .703.476 1.028 1.264 1.028h1.128V2.697zM46.37.414h2.582v9.521H46.37zm-10.009 0H43.7V2.78H41.32v7.155h-2.582V2.78h-2.378zm-5.252 0h2.582v9.521h-2.582zM19.974 9.083l1.358-2.215c.653.448 1.25.72 2.08.72 1.399 0 2.594-.842 2.594-2.418 0-1.577-1.195-2.42-2.595-2.42-.829 0-1.426.273-2.079.721l-1.358-2.215C20.816.672 21.984.21 23.493.21c2.948 0 5.23 1.807 5.23 4.96 0 3.152-2.282 4.959-5.23 4.959-1.508 0-2.677-.462-3.52-1.046zm-8.771.852H8.35L12.032.414h2.758l3.682 9.521H15.62l-.584-1.781h-3.248zm3.18-3.828l-.979-2.976-.965 2.976zM3.586.414H6.17v9.521H0V7.57h3.587z"/></g><g><path fill="#848798" d="M31.114 18.732h-.704v-.674h.704v-.504c0-1.111.807-1.274 1.17-1.274.252 0 .43.03.541.067v.681c-.111-.007-.2-.03-.318-.03-.245 0-.586.038-.586.541v.519h.904v.674h-.904v2.778h-.807z"/></g><g><path fill="#848798" d="M33.57 19.785c0-1.015.645-1.815 1.719-1.815.459 0 .874.207 1.089.556v-.467h.8v3.452h-.8v-.467c-.215.348-.69.556-1.112.556zm2.837 0c0-.593-.333-1.096-1.022-1.096-.63 0-1.008.466-1.008 1.096 0 .63.378 1.096 1.008 1.096z"/></g><g><path fill="#848798" d="M38.32 19.785c0-1.074.645-1.815 1.719-1.815.963 0 1.563.526 1.637 1.319h-.808c-.088-.393-.34-.6-.83-.6-.57 0-.91.392-.91 1.096 0 .704.34 1.096.91 1.096.49 0 .742-.2.83-.563h.808c-.074.77-.674 1.282-1.637 1.282-1.074 0-1.719-.74-1.719-1.815"/></g><g><path fill="#848798" d="M42.42 16.96c0 .333.244.6.6.6s.6-.267.6-.6c0-.333-.244-.6-.6-.6s-.6.267-.6.6zm.2 4.549h.8v-3.453h-.8z"/></g><g><path fill="#848798" d="M44.82 21.506h.807V16.32h-.807z"/></g><g><path fill="#848798" d="M46.84 16.96c0 .333.244.6.6.6s.6-.267.6-.6c0-.333-.244-.6-.6-.6s-.6.267-.6.6zm.2 4.549h.8v-3.453h-.8z"/></g><g><path fill="#848798" d="M51.214 20.795v.712a3.885 3.885 0 0 1-.6.044c-.393 0-1.119-.052-1.119-1.215V18.73h-.585v-.674h.585V17.01h.808v1.045h.792v.674h-.792v1.422c0 .6.185.674.503.674.126 0 .326-.015.408-.03"/></g><g><path fill="#848798" d="M51.97 19.785c0-1.015.645-1.815 1.719-1.815.459 0 .874.207 1.089.556v-.467h.8v3.452h-.8v-.467c-.215.348-.69.556-1.112.556zm2.837 0c0-.593-.333-1.096-1.022-1.096-.63 0-1.007.466-1.007 1.096 0 .63.377 1.096 1.007 1.096z"/></g><g><path fill="#848798" d="M58.754 20.795v.712a3.89 3.89 0 0 1-.6.044c-.393 0-1.119-.052-1.119-1.215V18.73h-.585v-.674h.585V17.01h.808v1.045h.792v.674h-.792v1.422c0 .6.185.674.503.674.126 0 .326-.015.408-.03"/></g><g><path fill="#848798" d="M59.6 16.96c0 .333.245.6.6.6.356 0 .6-.267.6-.6 0-.333-.244-.6-.6-.6-.355 0-.6.267-.6.6zm.2 4.549h.8v-3.453h-.8z"/></g><g><path fill="#848798" d="M61.79 18.059h.807v.481c.216-.37.615-.57 1.127-.57.83 0 1.259.467 1.259 1.37v2.171h-.808v-1.8c0-.733-.192-1.052-.755-1.052-.526 0-.823.348-.823.956v1.896h-.807z"/></g><g><path fill="#848798" d="M69.708 18.059v3.304c0 .681-.215 1.193-.623 1.489-.288.215-.689.304-1.185.304-.46 0-.896-.097-1.215-.312-.326-.222-.533-.555-.548-.94h.845c.066.355.355.585.91.585.66 0 1.008-.289 1.008-1.067v-.378c-.207.348-.681.556-1.104.556-1.074 0-1.696-.8-1.696-1.815s.682-1.815 1.719-1.815c.459 0 .874.207 1.081.556v-.467zm-1.793.63c-.608 0-1.008.466-1.008 1.096 0 .63.4 1.096 1.008 1.096.66 0 1.022-.503 1.022-1.096 0-.593-.363-1.096-1.022-1.096z"/></g><g><path fill="#848798" d="M30.52 26.455c0-1.074.645-1.815 1.719-1.815.963 0 1.563.526 1.637 1.319h-.808c-.088-.393-.34-.6-.83-.6-.57 0-.91.392-.91 1.096 0 .704.34 1.096.91 1.096.49 0 .742-.2.83-.563h.808c-.074.77-.674 1.282-1.637 1.282-1.074 0-1.719-.74-1.719-1.815"/></g><g><path fill="#848798" d="M38.223 26.015v2.17h-.808v-1.8c0-.733-.192-1.052-.755-1.052-.526 0-.823.349-.823.956v1.897h-.807V23h.807v2.215c.215-.37.615-.57 1.127-.57.83 0 1.259.466 1.259 1.37"/></g><g><path fill="#848798" d="M39.33 26.455c0-1.015.645-1.815 1.719-1.815.459 0 .874.207 1.089.556v-.467h.8v3.452h-.8v-.467c-.215.348-.69.556-1.112.556zm2.837 0c0-.593-.333-1.096-1.022-1.096-.63 0-1.008.466-1.008 1.096 0 .63.378 1.096 1.008 1.096z"/></g><g><path fill="#848798" d="M44.35 24.729h.807v.481c.216-.37.615-.57 1.127-.57.83 0 1.259.467 1.259 1.37v2.171h-.808v-1.8c0-.733-.192-1.052-.755-1.052-.526 0-.823.348-.823.956v1.896h-.807z"/></g><g><path fill="#848798" d="M52.258 24.729v3.304c0 .681-.215 1.193-.623 1.489-.288.215-.689.304-1.185.304-.46 0-.896-.097-1.215-.312-.326-.222-.533-.555-.548-.94h.845c.066.355.355.585.91.585.66 0 1.008-.289 1.008-1.067v-.378c-.207.348-.681.556-1.104.556-1.074 0-1.696-.8-1.696-1.815s.682-1.815 1.719-1.815c.459 0 .874.207 1.081.556v-.467zm-1.793.63c-.608 0-1.008.466-1.008 1.096 0 .63.4 1.096 1.008 1.096.66 0 1.022-.503 1.022-1.096 0-.593-.363-1.096-1.022-1.096z"/></g><g><path fill="#848798" d="M53.407 27.254h.815c.133.266.37.392.77.392.586 0 .941-.296.963-.845h-2.563a5.371 5.371 0 0 1-.022-.444c0-.97.667-1.637 1.652-1.637 1.052 0 1.733.711 1.733 1.815 0 1.118-.674 1.815-1.763 1.815-.83 0-1.481-.452-1.585-1.096zm2.558-1.067c-.007-.49-.35-.83-.923-.83-.56 0-.872.296-.88.83z"/></g></g></g></svg>