<svg xmlns="http://www.w3.org/2000/svg" width="62" height="60" viewBox="0 0 62 60"><g><g><g><path fill="none" stroke="#222329" stroke-miterlimit="20" d="M59.43 29.927v29.197H.58v0-35.317 0L30.005.73v0l7.868 6.17v0"/></g><g><path fill="none" stroke="#222329" stroke-miterlimit="20" d="M4.36 26.08l55.067 30.087"/></g><g><path fill="none" stroke="#222329" stroke-miterlimit="20" d="M.62 29.04l15.797 8.63"/></g><g><path fill="none" stroke="#222329" stroke-miterlimit="20" d="M42.772 33.8L31.2 40.755"/></g><g><path fill="#c6242b" d="M48.386 5.59c7.073 0 12.796 5.722 12.796 12.796 0 7.06-5.723 12.795-12.796 12.795H35.59V18.386c0-7.074 5.735-12.796 12.796-12.796zm-5.113 18.384h5.108V22.82h-5.108zm.001-4H53.5v-1.155H43.274zm0-4.001H53.5v-1.154H43.274z"/></g></g></g></svg>