<svg xmlns="http://www.w3.org/2000/svg" width="63" height="62" viewBox="0 0 63 62"><g><g><g><path fill="none" stroke="#222329" stroke-miterlimit="20" d="M38.976 60.569v0H.5v0V11.41v0h38.476v0"/></g><g><path fill="none" stroke="#222329" stroke-miterlimit="20" d="M38.98 11.41v19.385"/></g><g><g><path fill="none" stroke="#222329" stroke-miterlimit="20" d="M52.17 49.659v0h9.755v0V.5v0H23.45v10.909"/></g><g><path fill="none" stroke="#222329" stroke-miterlimit="20" d="M23.45.5v0l15.535 10.959v19.335"/></g></g><g><path fill="none" stroke="#222329" stroke-miterlimit="20" d="M7.01 18.82h25.321"/></g><g><path fill="none" stroke="#222329" stroke-miterlimit="20" d="M7.01 24.92h25.321"/></g><g><path fill="none" stroke="#222329" stroke-miterlimit="20" d="M7.01 31.02h25.321"/></g><g><path fill="none" stroke="#222329" stroke-miterlimit="20" d="M7.01 37.12h17.441"/></g><g><path fill="none" stroke="#222329" stroke-miterlimit="20" d="M33.62 7.68h21.723"/></g><g><path fill="none" stroke="#222329" stroke-miterlimit="20" d="M38.98 13.78h16.372"/></g><g><path fill="none" stroke="#222329" stroke-miterlimit="20" d="M38.98 19.88h16.372"/></g><g><path fill="none" stroke="#222329" stroke-miterlimit="20" d="M38.98 25.98h8.493"/></g><g><path fill="none" stroke="#222329" stroke-miterlimit="20" d="M7.01 49.37h17.441"/></g><g><path fill="none" stroke="#222329" stroke-miterlimit="20" d="M7.01 53.49h12.025"/></g><g><path fill="#c6242b" d="M50.71 45.09c1.302 1.236.96 3.394-.661 4.17a2.562 2.562 0 0 0-1.415 2.777c.326 1.767-1.22 3.313-2.986 2.986a2.563 2.563 0 0 0-2.778 1.416c-.774 1.621-2.933 1.962-4.171.66a2.563 2.563 0 0 0-3.08-.488c-1.578.856-3.525-.136-3.762-1.917a2.561 2.561 0 0 0-2.204-2.204 2.563 2.563 0 0 1-1.917-3.762 2.564 2.564 0 0 0-.488-3.08 2.563 2.563 0 0 1 .66-4.17 2.564 2.564 0 0 0 1.416-2.779 2.564 2.564 0 0 1 2.987-2.986 2.56 2.56 0 0 0 2.777-1.415 2.563 2.563 0 0 1 4.17-.66c.799.84 2.06 1.04 3.08.487 1.58-.855 3.527.137 3.763 1.917a2.561 2.561 0 0 0 2.204 2.205c1.78.235 2.773 2.183 1.918 3.763a2.562 2.562 0 0 0 .487 3.08zm-6.336-2.71l-.708-.708-6.335 6.332-3.04-3.038-.707.707 3.747 3.745z"/></g></g></g></svg>