<svg xmlns="http://www.w3.org/2000/svg" width="60" height="67" viewBox="0 0 60 67"><g><g><g><path fill="none" stroke="#222329" stroke-miterlimit="20" d="M20.606 52.154c-1.209-5.304-1.916-11.73-1.916-18.653C18.69 15.302 23.577.55 29.604.55 35.632.55 40.52 15.302 40.52 33.5"/></g><g><path fill="none" stroke="#222329" stroke-miterlimit="20" d="M39.842 45.02c-1.548 12.517-5.543 21.431-10.23 21.431-1.73 0-3.368-1.217-4.822-3.383"/></g><g><path fill="none" stroke="#222329" stroke-miterlimit="20" d="M34.172 23.536c.298.167.596.338.893.51 15.762 9.098 26.094 20.706 23.08 25.926-3.014 5.22-18.233 2.077-33.994-7.023C8.39 33.85-1.941 22.242 1.072 17.021c2.26-3.914 11.387-3.124 22.457 1.354"/></g><g><path fill="none" stroke="#222329" stroke-miterlimit="20" d="M24.151 24.05C8.391 33.149-1.94 44.758 1.072 49.977c3.014 5.22 18.233 2.077 33.994-7.023"/></g><g><path fill="none" stroke="#222329" stroke-miterlimit="20" d="M45.336 36.11c9.669-7.448 15.101-15.117 12.808-19.088-2.339-4.049-12.022-3.066-23.604 1.827"/></g><g><path fill="#c6242b" d="M26.238 57.968a4.058 4.058 0 1 1-4.058-4.058 4.058 4.058 0 0 1 4.058 4.058"/></g><g><path fill="#c6242b" d="M43.93 39.43a4.059 4.059 0 1 1-8.119-.001 4.059 4.059 0 0 1 8.118 0"/></g><g><path fill="#c6242b" d="M33.1 20.92a4.059 4.059 0 1 1-8.119-.001 4.059 4.059 0 0 1 8.118 0"/></g></g></g></svg>