<svg xmlns="http://www.w3.org/2000/svg" width="178" height="46" viewBox="0 0 178 46"><defs><clipPath id="9blna"><path d="M0 14.18h11.015v16.667H0z"/></clipPath><clipPath id="9blnb"><path d="M6.063 30.656h15.57V44.56H6.063z"/></clipPath><clipPath id="9blnc"><path d="M25.031.394H40.6v13.904H25.031z"/></clipPath></defs><g><g><g><g><g/><g clip-path="url(#9blna)"><path fill="#c6242b" d="M3.082 30.847c-4.11-4.583-4.11-12.084 0-16.667l7.933 3.19c-2.472 2.857-2.472 7.43 0 10.288z"/></g></g><g><g/><g clip-path="url(#9blnb)"><path fill="#bbbdbf" d="M20.412 44.307c-6.001 1.288-12.458-2.461-14.349-8.334l6.714-5.317c1.222 3.583 5.16 5.869 8.856 5.144z"/></g></g><g><path fill="#bbbdbf" d="M40.67 35.931c-1.891 5.871-8.348 9.622-14.348 8.334L25.1 35.758c3.696.725 7.633-1.561 8.857-5.143z"/></g><g><g/><g clip-path="url(#9blnc)"><path fill="#bbbdbf" d="M26.252.647C32.252-.64 38.71 3.11 40.6 8.982l-6.714 5.316c-1.222-3.582-5.159-5.868-8.854-5.143z"/></g></g><g><path fill="#bbbdbf" d="M5.994 9.024C7.884 3.152 14.342-.6 20.342.688l1.221 8.507c-3.696-.724-7.633 1.562-8.857 5.144z"/></g><g><path fill="#c6242b" d="M63.173 15.42l-6.71 18.808h-6.359l-6.66-18.807h6.132l3.83 12.415 3.77-12.415z"/></g><g><path fill="#c6242b" d="M75.701 32.24l-1.073.909c-.319.263-.74.532-1.273.8a8.832 8.832 0 0 1-1.522.59c-.497.13-1.19.199-2.075.199-1.654 0-3.029-.56-4.12-1.674-1.096-1.115-1.641-2.522-1.641-4.218 0-1.397.276-2.528.835-3.386.551-.858 1.35-1.543 2.39-2.04 1.06-.514 2.319-.875 3.786-1.074a69.67 69.67 0 0 1 4.727-.47v-.103c0-1.035-.38-1.754-1.143-2.148-.76-.395-1.903-.595-3.42-.595-.687 0-1.493.125-2.414.376a19.27 19.27 0 0 0-2.7.96h-.498V15.83c.578-.167 1.511-.367 2.795-.595a22.3 22.3 0 0 1 3.898-.343c3.222 0 5.566.538 7.04 1.617 1.472 1.075 2.205 2.722 2.205 4.934v12.793H75.7zm0-6.83c-.988.101-1.79.188-2.398.256a8.222 8.222 0 0 0-1.801.43c-.512.176-.903.451-1.188.81-.284.367-.427.847-.427 1.453 0 .88.24 1.486.712 1.818.472.326 1.164.492 2.086.492.51 0 1.032-.121 1.567-.356a4.825 4.825 0 0 0 1.45-.982z"/></g><g><path fill="#c6242b" d="M85.815 34.233h5.824V8.173h-5.824z"/></g><g><path fill="#c6242b" d="M100.555 22.41c.068-1.172.42-2.105 1.057-2.785.642-.68 1.522-1.023 2.658-1.023 1.109 0 1.932.326 2.472.971.54.653.824 1.596.86 2.837zm5.113 12.338c.967 0 1.784-.046 2.456-.143a15.53 15.53 0 0 0 1.954-.394c.687-.166 1.235-.332 1.625-.493.392-.16.83-.337 1.306-.526v-4.846h-.613c-.256.189-.586.406-.994.653-.404.246-.847.474-1.324.686a9.24 9.24 0 0 1-1.797.595 8.648 8.648 0 0 1-2 .228 9.627 9.627 0 0 1-2.18-.228c-.664-.148-1.252-.395-1.745-.744a3.772 3.772 0 0 1-1.234-1.402c-.311-.583-.494-1.315-.55-2.184h12.774v-2.11c0-2.895-.723-5.121-2.166-6.677-1.443-1.55-3.597-2.328-6.46-2.328-3.154 0-5.603.915-7.36 2.752-1.755 1.83-2.63 4.284-2.63 7.356 0 3.14.944 5.56 2.825 7.259 1.882 1.699 4.585 2.546 8.113 2.546z"/></g><g><path fill="#c6242b" d="M133.852 34.246h-5.857v-9.337c0-.754-.03-1.515-.092-2.27-.063-.75-.175-1.31-.34-1.665-.2-.422-.49-.727-.869-.915-.377-.183-.883-.275-1.513-.275-.477 0-.96.092-1.449.27-.49.177-1.01.463-1.568.852v13.34h-5.824v-18.82h5.824v2.076c.955-.813 1.887-1.453 2.792-1.91.901-.458 1.901-.687 3.004-.687 1.91 0 3.37.607 4.375 1.819 1.01 1.213 1.517 2.968 1.517 5.269z"/></g><g><path fill="#c6242b" d="M145.322 34.6c-2.375 0-4.103-.49-5.183-1.475-1.085-.983-1.626-2.589-1.626-4.819v-8.791h-2.232v-4.087h2.232v-5.374h5.826v5.374h5.613v4.087h-5.613v6.658c0 .664.005 1.235.016 1.728.011.492.103.932.269 1.321.151.393.43.703.823.931.392.229.965.343 1.72.343.314 0 .723-.068 1.23-.2.503-.137.856-.257 1.056-.371h.5v4.138c-.632.166-1.308.297-2.017.395-.712.096-1.581.142-2.614.142"/></g><g><path fill="#c6242b" d="M152.176 12.746h6.16V8.172h-6.16zm.166 21.501h5.824v-18.82h-5.824z"/></g><g><path fill="#c6242b" d="M168.325 34.752c-1.38 0-2.682-.15-3.904-.452-1.226-.302-2.238-.652-3.039-1.058v-4.955h.483c.28.212.59.444.95.702.351.258.845.526 1.482.806.538.258 1.153.475 1.835.663.68.183 1.424.275 2.223.275.822 0 1.545-.125 2.176-.383.623-.257.937-.67.937-1.223 0-.44-.144-.766-.434-.99-.289-.222-.845-.44-1.68-.64a35.758 35.758 0 0 0-1.684-.359 15.356 15.356 0 0 1-1.795-.44c-1.464-.458-2.561-1.14-3.301-2.036-.737-.903-1.109-2.08-1.109-3.544 0-.834.195-1.628.575-2.373.382-.737.943-1.4 1.688-1.982.744-.566 1.666-1.025 2.756-1.356 1.092-.336 2.325-.502 3.7-.502 1.31 0 2.516.13 3.614.394 1.097.262 2.022.577 2.778.943v4.756h-.466a11.329 11.329 0 0 0-.95-.629 12.631 12.631 0 0 0-1.261-.675 8.846 8.846 0 0 0-1.644-.554 8.029 8.029 0 0 0-1.85-.216c-.84 0-1.557.142-2.137.433-.586.291-.874.675-.874 1.16 0 .424.142.755.432 1.002.29.245.914.485 1.879.72.5.125 1.075.245 1.721.359.649.12 1.274.28 1.878.48 1.339.436 2.356 1.076 3.05 1.915.692.847 1.04 1.967 1.04 3.362 0 .88-.205 1.72-.614 2.52a5.749 5.749 0 0 1-1.752 2.019c-.8.588-1.738 1.045-2.816 1.371-1.084.326-2.38.487-3.887.487"/></g></g></g></g></svg>