<svg xmlns="http://www.w3.org/2000/svg" width="42" height="38" viewBox="0 0 42 38"><g><g><g><path fill="#c6242b" d="M32.036 23.527c-.17.17-.318.351-.467.531a11.04 11.04 0 0 1 3.504 2.363l-.825.826a9.86 9.86 0 0 0-3.577-2.282c-3.725-1.301-8.024-.486-11 2.49a10.57 10.57 0 0 0-3.1 7.648c3.605 1.665 7.868 1.918 11.671.703 4.828-1.54 8.837-5.268 11.052-9.825a21.187 21.187 0 0 0 1.505-4.25 8.119 8.119 0 0 0-8.763 1.796"/></g><g><path fill="none" stroke="#b0b2bd" stroke-miterlimit="20" d="M3 33.861v0h2.303v0l-.026-1.165c0-.632.131-1.39.693-2.022.867-.973 1.937-1.303 2.987-1.092 2.142.428 3.034 2.477 4.86 3.886 4.013 3.094 9.602 3.882 14.43 2.342 4.826-1.54 8.836-5.271 11.052-9.828 2.215-4.557 2.69-9.873 1.68-14.838-.513-2.526-1.45-5.06-3.279-6.879-2.501-2.488-6.58-3.225-9.795-1.77-1.01.46-1.927 1.105-2.948 1.537-1.021.432-2.22.631-3.225.163-1.006-.465-1.116-1.893-1.112-2.745V.02v0"/></g><g><path fill="none" stroke="#b0b2bd" stroke-miterlimit="20" d="M17.974.58v0H15.21v0s.01.389 0 .777c-.049 2.309.174 4.777 1.946 6.257 1.11.927 2.524 1.433 3.647 2.345 2.106 1.709 2.921 5.322 1.85 7.813-1.645.715-2.777 2.27-2.956 4.135a5.034 5.034 0 0 0-6.938 3.501s-2.24-.741-4.477-.75c-2.236-.01-4.319.732-5.827 2.384-.721.79-1.168 1.76-1.486 2.789-.4 1.296-.389 4.028-.389 4.028v.582"/></g></g></g></svg>