<svg xmlns="http://www.w3.org/2000/svg" width="45" height="40" viewBox="0 0 45 40"><g><g><g><path fill="#c6242b" d="M38.065 11.79c0 6.47-5.984 11.72-5.984 11.72S26.1 18.26 26.1 11.79C26.1 5.319 32.081.07 32.081.07s5.984 5.249 5.984 11.72z"/></g><g><path fill="none" stroke="#b0b2bd" stroke-miterlimit="20" d="M35.235 30.241c3.043-3.06 8.338-2.698 8.338-2.698v0s.362 5.326-2.681 8.386c-3.044 3.06-8.339 2.696-8.339 2.696v0s-.362-5.324 2.682-8.384z"/></g><g><path fill="none" stroke="#b0b2bd" stroke-miterlimit="20" d="M20.965 18.304c7.315 7.355 6.447 20.152 6.447 20.152v0s-12.728.873-20.043-6.482C.054 24.619.922 11.822.922 11.822v0s12.728-.873 20.043 6.482z"/></g><g><path fill="none" stroke="#b0b2bd" stroke-miterlimit="20" d="M.92 11.83l26.49 26.634"/></g><g><path fill="none" stroke="#b0b2bd" stroke-miterlimit="20" d="M16.984 15.42v12.551H4.5v0"/></g></g></g></svg>