<svg xmlns="http://www.w3.org/2000/svg" width="32" height="41" viewBox="0 0 32 41"><g><g><g><path fill="#c6242b" d="M19.036 13.93a4.173 4.173 0 0 0-3.285 1.602 4.173 4.173 0 0 0-3.285-1.602 4.194 4.194 0 0 0-4.186 4.201c0 .819.238 1.58.641 2.226 1.544 2.976 6.83 5.96 6.83 5.96s5.041-2.854 6.698-5.76a4.193 4.193 0 0 0 .772-2.426 4.193 4.193 0 0 0-4.185-4.201z"/><path fill="none" stroke="#c6242b" stroke-miterlimit="20" d="M19.036 13.93a4.173 4.173 0 0 0-3.285 1.602 4.173 4.173 0 0 0-3.285-1.602 4.194 4.194 0 0 0-4.186 4.201c0 .819.238 1.58.641 2.226 1.544 2.976 6.83 5.96 6.83 5.96v0s5.041-2.854 6.698-5.76a4.193 4.193 0 0 0 .772-2.426 4.193 4.193 0 0 0-4.185-4.201z"/></g><g><path fill="none" stroke="#b0b2bd" stroke-miterlimit="20" d="M30.754 15.87v2.863c0 9.787-5.944 17.084-15.002 20.707C6.694 35.817.75 28.52.75 18.733V6.81v0L15.752.81v0l15.002 6v4.342"/></g></g></g></svg>