<svg xmlns="http://www.w3.org/2000/svg" width="39" height="38" viewBox="0 0 39 38"><g><g><g><path fill="#d92128" d="M15.278 9.088h.02"/></g><g><path fill="#d92128" d="M10.328 14.058v-.02"/></g><g><g><path fill="#c6242b" d="M24.62 28.33a3.887 3.887 0 0 0-1.126-2.414 4.122 4.122 0 0 0-1.088-.767l-2.877-1.399a9.98 9.98 0 0 1-4.628-4.627l-1.392-2.869a3.934 3.934 0 0 0-3.179-2.215 4.962 4.962 0 0 1 4.949-4.949c.086.9.474 1.76 1.136 2.424.303.302.663.548 1.08.757l2.876 1.382A9.977 9.977 0 0 1 25 18.278l1.39 2.888a3.939 3.939 0 0 0 3.18 2.215 4.96 4.96 0 0 1-4.95 4.95"/><path fill="none" stroke="#c6242b" stroke-miterlimit="20" d="M24.62 28.33a3.887 3.887 0 0 0-1.126-2.414 4.122 4.122 0 0 0-1.088-.767l-2.877-1.399a9.98 9.98 0 0 1-4.628-4.627l-1.392-2.869a3.934 3.934 0 0 0-3.179-2.215 4.962 4.962 0 0 1 4.949-4.949c.086.9.474 1.76 1.136 2.424.303.302.663.548 1.08.757l2.876 1.382A9.977 9.977 0 0 1 25 18.278l1.39 2.888a3.939 3.939 0 0 0 3.18 2.215 4.96 4.96 0 0 1-4.95 4.95"/></g><g><path fill="#d92128" d="M24.617 28.328h-.019"/></g><g><path fill="#d92128" d="M29.568 23.377v-.019"/></g><g><path fill="none" stroke="#b0b2bd" stroke-miterlimit="20" d="M30.608.38v0l-3.299 3.299a6.075 6.075 0 0 1-5.77 1.599l-1.394-.348a3.92 3.92 0 0 0-3.725 1.032c-1.91 1.91-1.364 5.133 1.07 6.306l2.878 1.392A9.944 9.944 0 0 1 25 18.29l1.39 2.88c1.175 2.433 4.398 2.98 6.308 1.07a3.925 3.925 0 0 0 1.032-3.726l-.348-1.395a6.074 6.074 0 0 1 1.598-5.769l3.3-3.3v0"/></g><g><path fill="none" stroke="#b0b2bd" stroke-miterlimit="20" d="M9.29 37.038v0l3.298-3.298a6.083 6.083 0 0 1 5.77-1.6l1.396.348a3.922 3.922 0 0 0 3.725-1.032c1.909-1.91 1.363-5.133-1.069-6.306l-2.88-1.39a9.936 9.936 0 0 1-4.63-4.631l-1.392-2.881c-1.173-2.433-4.397-2.977-6.306-1.067a3.913 3.913 0 0 0-1.032 3.723l.348 1.396a6.08 6.08 0 0 1-1.6 5.77L1.62 29.368v0"/></g></g></g></g></svg>