<svg xmlns="http://www.w3.org/2000/svg" width="44" height="40" viewBox="0 0 44 40"><g><g><g><path fill="none" stroke="#b0b2bd" stroke-miterlimit="20" d="M11.36 34.669v0H1.49v0-13.68C1.49 9.668 10.702.49 22.065.49S42.64 9.668 42.64 20.99v13.679H32.77v0"/></g><g><path fill="none" stroke="#b0b2bd" stroke-miterlimit="20" d="M36.31 25.313c0 7.835-6.376 14.187-14.24 14.187S7.83 33.148 7.83 25.313V21.74v0"/></g><g><path fill="none" stroke="#b0b2bd" stroke-miterlimit="20" d="M35.788 5.55C30.502 18.974 15.295 25.589 1.82 20.323"/></g><g><path fill="#c6242b" d="M22.061 34.663c2.438 0 3.852-2.224 3.852-2.224.003-.175-.795-1.812-1.984-2.337-.635-.28-1.868.105-1.868.105s-1.233-.385-1.867-.105c-1.19.525-1.988 2.162-1.984 2.337 0 0 1.413 2.224 3.851 2.224"/></g></g></g></svg>