<svg xmlns="http://www.w3.org/2000/svg" width="46" height="30" viewBox="0 0 46 30"><g><g><g><path fill="none" stroke="#b0b2bd" stroke-miterlimit="20" d="M30.19 10.004c-8.855-1.887-17.995 1.137-25.93 9.072 12.82 12.82 28.79 12.82 41.612 0"/></g><g><path fill="none" stroke="#b0b2bd" stroke-miterlimit="20" d="M25.066 3.75c-8.53 0-17.06 3.798-24.656 11.395"/></g><g><path fill="none" stroke="#b0b2bd" stroke-miterlimit="20" d="M31.624 19.073a6.562 6.562 0 1 1-13.124-.001 6.562 6.562 0 0 1 13.124 0z"/></g><g><path fill="#b0b2bd" d="M25.08 15.53c-.137 0-.267.024-.401.04.432.419.703 1.003.703 1.653a2.307 2.307 0 0 1-2.307 2.307 2.29 2.29 0 0 1-1.53-.592c-.002.047-.015.092-.015.141a3.55 3.55 0 1 0 3.55-3.55"/></g><g><path fill="#c6242b" d="M39.178 0s6.218 6.89 6.218 12.685a6.218 6.218 0 0 1-12.436 0C32.96 6.89 39.178 0 39.178 0"/></g></g></g></svg>