<svg xmlns="http://www.w3.org/2000/svg" width="39" height="41" viewBox="0 0 39 41"><g><g><g><path fill="none" stroke="#b0b2bd" stroke-miterlimit="20" d="M1.97 21.634v0-3.209C1.97 8.526 9.995.5 19.895.5c9.899 0 17.924 8.026 17.924 17.925v2.98"/></g><g><path fill="#c6242b" d="M25.671 32.527H14.12l.289-1.805a2.061 2.061 0 0 1 2.016-1.632h6.941c.973 0 1.813.681 2.016 1.632z"/></g><g><path fill="none" stroke="#b0b2bd" stroke-miterlimit="20" d="M34.415 20.23v0h1.182a2.688 2.688 0 0 1 0 5.377h-1.182v.02c0 8.021-6.502 14.523-14.522 14.523-7.952 0-14.41-6.39-14.522-14.314H5.37v0H4.187a2.688 2.688 0 0 1 0-5.376H5.37v0"/></g><g><path fill="none" stroke="#b0b2bd" stroke-miterlimit="20" d="M24.096 4.45c0 8.84-7.166 16.006-16.006 16.006"/></g></g></g></svg>