<svg xmlns="http://www.w3.org/2000/svg" width="36" height="39" viewBox="0 0 36 39"><g><g><g><path fill="none" stroke="#b0b2bd" stroke-miterlimit="20" d="M20.165 37.574v0h7.786v0-8.742c4.497-3.09 7.28-8.489 6.63-14.488-.772-7.119-6.498-12.86-13.617-13.647-9.333-1.03-17.233 6.25-17.233 15.376 0 .213.017.423.025.635l-3.103 7.33a.666.666 0 0 0 .613.926H3.79c.368 0 .665.298.665.667v6.62c0 .369.298.667.666.667h5.257v4.656z"/></g><g><path fill="#c6242b" d="M11.656 15.522c1.553.686 3.327.63 5.016.439 1.687-.19 3.388-.506 5.072-.291 1.347.173 2.774.805 3.292 2.059.339.82.235 1.783.638 2.572.531 1.04 1.888 1.498 3.012 1.183 1.127-.315 1.995-1.275 2.42-2.363.426-1.09.458-2.295.336-3.457-.39-3.709-1.964-7.276-4.993-9.452-3.03-2.176-7.478-2.889-11.053-1.826-1.628.483-3.163 1.336-4.341 2.56-2.37 2.467-3.122 6.928.601 8.576"/></g><g><path fill="none" stroke="#b0b2bd" stroke-miterlimit="20" d="M13.306 18.506a3.952 3.952 0 0 1-5.586 0"/></g></g></g></svg>