<svg xmlns="http://www.w3.org/2000/svg" width="36" height="41" viewBox="0 0 36 41"><g><g><g><path fill="#c6242b" d="M17.644 38.124a4.895 4.895 0 0 1-6.921-6.921 4.895 4.895 0 0 1 6.92 6.92"/><path fill="none" stroke="#c6242b" stroke-miterlimit="20" d="M17.644 38.124a4.895 4.895 0 0 1-6.921-6.921 4.895 4.895 0 0 1 6.92 6.92"/></g><g><path fill="none" stroke="#b0b2bd" stroke-miterlimit="20" d="M7.68 33.111v0H5.155a.67.67 0 0 1-.669-.67v-6.657c0-.37-.3-.67-.67-.67H1.28a.67.67 0 0 1-.616-.93l3.122-7.374c-.01-.212-.026-.425-.026-.64C3.76 6.994 11.704-.328 21.09.709c7.16.79 12.919 6.564 13.696 13.724.654 6.034-2.146 11.466-6.669 14.57v8.792h-7.83v0"/></g></g></g></svg>