<svg xmlns="http://www.w3.org/2000/svg" width="39" height="67" viewBox="0 0 39 67"><defs><clipPath id="m4t5a"><path d="M0 18.92h27.682v47.536H0z"/></clipPath></defs><g><g><g><path fill="none" stroke="#b0b2bd" stroke-miterlimit="20" d="M20.41 21.356v0-6.818c0-.71-.576-1.288-1.289-1.288H8.558c-.71 0-1.288.577-1.288 1.288v6.818"/></g><g><path fill="none" stroke="#b0b2bd" stroke-miterlimit="20" d="M16.04 8.554h2.5"/></g><g><path fill="none" stroke="#b0b2bd" stroke-miterlimit="20" d="M17.248 3.85h-6.82c-.712 0-1.288.576-1.288 1.288v8.105h9.397v0-8.105c0-.712-.577-1.288-1.289-1.288z"/></g><g><g/><g clip-path="url(#m4t5a)"><path fill="#c6242b" d="M18.76 64.685V41.56a4.606 4.606 0 0 1 4.606-4.607H19.6a1.055 1.055 0 0 1-1.054-1.055v-3.193c0-.583.472-1.055 1.054-1.055h1.624v-4.42c0-.488.395-.883.882-.883h2.724v-2.759a12.576 12.576 0 0 0-.987-1.087 12.644 12.644 0 0 0-2.875-2.102c-.012-.006-.027-.011-.038-.018-.34-.179-.688-.345-1.045-.495-.052-.02-.106-.036-.157-.056a12.18 12.18 0 0 0-.982-.355c-.108-.032-.222-.055-.331-.085-.282-.078-.567-.158-.86-.216-.2-.041-.406-.063-.61-.094-.208-.032-.414-.072-.627-.096a13.08 13.08 0 0 0-1.278-.064h-2.398c-.431 0-.858.023-1.278.064-.212.024-.417.064-.627.096-.204.03-.41.053-.611.094-.292.058-.575.138-.86.216-.109.03-.221.053-.33.085a12.21 12.21 0 0 0-.982.355c-.052.02-.106.036-.156.056-.357.15-.706.316-1.045.495-.013.007-.027.012-.04.018a12.637 12.637 0 0 0-2.881 2.107A12.599 12.599 0 0 0 0 31.562v34.462c0 .24.195.433.433.433H27.25c.12 0 .228-.05.305-.128a.432.432 0 0 0 .128-.305v-.186h-7.77a1.153 1.153 0 0 1-1.153-1.153"/></g></g><g><path fill="none" stroke="#fff" stroke-miterlimit="20" d="M3.12 38.386v0-5.931a9.794 9.794 0 0 1 9.795-9.795"/></g><g><path fill="none" stroke="#b0b2bd" stroke-miterlimit="20" d="M26.19 8.554h12"/></g><g><path fill="none" stroke="#b0b2bd" stroke-miterlimit="20" d="M26.19 3.709L31.644.56"/></g><g><path fill="none" stroke="#b0b2bd" stroke-miterlimit="20" d="M35.051 65.835h-15.14a1.152 1.152 0 0 1-1.151-1.152V41.556a4.607 4.607 0 0 1 4.608-4.606h8.228a4.607 4.607 0 0 1 4.607 4.606v23.127c0 .636-.516 1.152-1.152 1.152z"/></g><g><path fill="none" stroke="#b0b2bd" stroke-miterlimit="20" d="M35.367 36.952H19.605a1.054 1.054 0 0 1-1.055-1.054v-3.195c0-.581.472-1.053 1.055-1.053h15.762c.581 0 1.054.472 1.054 1.053v3.195c0 .582-.473 1.054-1.054 1.054z"/></g><g><path fill="none" stroke="#b0b2bd" stroke-miterlimit="20" d="M33.735 31.643v0H21.22v0-4.422c0-.487.396-.881.883-.881h10.75c.486 0 .882.394.882.881z"/></g><g><path fill="none" stroke="#b0b2bd" stroke-miterlimit="20" d="M24.83 26.345v0-6.113a2.652 2.652 0 0 1 5.302 0v6.113"/></g></g></g></svg>