<svg xmlns="http://www.w3.org/2000/svg" width="60" height="59" viewBox="0 0 60 59"><g><g><g><path fill="#c6242b" d="M49.52 24.1L22.186 51.434a1.925 1.925 0 0 1-2.724 0L3.233 35.204l-1.918 1.919a1.925 1.925 0 0 0 0 2.724l18.147 18.147a1.927 1.927 0 0 0 2.724 0l29.25-29.252a1.927 1.927 0 0 0 0-2.725z"/></g><g><path fill="none" stroke="#b0b2bd" stroke-miterlimit="20" d="M22.186 51.436l29.25-29.25a1.925 1.925 0 0 0 0-2.724L33.29 1.315a1.927 1.927 0 0 0-2.725 0l-29.25 29.25a1.925 1.925 0 0 0 0 2.724l18.147 18.147a1.925 1.925 0 0 0 2.724 0z"/></g><g><path fill="none" stroke="#b0b2bd" stroke-miterlimit="20" d="M11.905 36.285v0A1.996 1.996 0 0 1 9.91 34.29v-3.823c0-1.103.894-1.997 1.995-1.997s1.995.894 1.995 1.997v3.823a1.996 1.996 0 0 1-1.995 1.995z"/></g><g><path fill="none" stroke="#b0b2bd" stroke-miterlimit="20" d="M18.725 29.465v0a1.996 1.996 0 0 1-1.995-1.995v-3.825a1.996 1.996 0 0 1 3.99 0v3.825a1.995 1.995 0 0 1-1.995 1.995z"/></g><g><path fill="none" stroke="#b0b2bd" stroke-miterlimit="20" d="M25.555 22.635v0a1.995 1.995 0 0 1-1.995-1.995v-3.825a1.995 1.995 0 0 1 3.99 0v3.825a1.996 1.996 0 0 1-1.995 1.995z"/></g><g><path fill="none" stroke="#b0b2bd" stroke-miterlimit="20" d="M32.375 15.805v0a1.996 1.996 0 0 1-1.995-1.995V9.986c0-1.102.894-1.996 1.995-1.996s1.995.894 1.995 1.996v3.824a1.996 1.996 0 0 1-1.995 1.995z"/></g><g><path fill="none" stroke="#b0b2bd" stroke-miterlimit="20" d="M20.375 44.755v0a1.996 1.996 0 0 1-1.995-1.996v-3.824a1.995 1.995 0 0 1 3.99 0v3.824a1.995 1.995 0 0 1-1.995 1.996z"/></g><g><path fill="none" stroke="#b0b2bd" stroke-miterlimit="20" d="M27.195 37.925v0A1.995 1.995 0 0 1 25.2 35.93v-3.825a1.995 1.995 0 0 1 3.99 0v3.825a1.996 1.996 0 0 1-1.995 1.995z"/></g><g><path fill="none" stroke="#b0b2bd" stroke-miterlimit="20" d="M34.025 31.105v0a1.996 1.996 0 0 1-1.995-1.995v-3.825a1.996 1.996 0 0 1 3.99 0v3.825a1.996 1.996 0 0 1-1.995 1.995z"/></g><g><path fill="#c6242b" d="M37.415 51.16a1.995 1.995 0 0 1 0-2.823l2.704-2.704a1.999 1.999 0 0 1 2.822 0c.778.78.778 2.044 0 2.823l-2.704 2.704c-.78.78-2.044.78-2.822 0"/></g><g><path fill="#c6242b" d="M48.24 47.985c0-1.103.894-1.995 1.995-1.995h3.825a1.995 1.995 0 0 1 0 3.99h-3.825a1.996 1.996 0 0 1-1.995-1.995"/></g><g><path fill="#c6242b" d="M58.82 39.05c-.78.78-2.043.78-2.823 0l-2.704-2.705a1.999 1.999 0 0 1 0-2.821 1.998 1.998 0 0 1 2.823 0l2.704 2.704c.78.78.78 2.043 0 2.822"/></g><g><path fill="none" stroke="#b0b2bd" stroke-miterlimit="20" d="M40.845 24.285v0a1.996 1.996 0 0 1-1.995-1.997v-3.823a1.996 1.996 0 0 1 3.99 0v3.823a1.995 1.995 0 0 1-1.995 1.997z"/></g><g><path fill="none" stroke="#b0b2bd" stroke-miterlimit="20" d="M9.91 32.38h3.99"/></g><g><path fill="none" stroke="#b0b2bd" stroke-miterlimit="20" d="M16.73 25.55h3.99"/></g><g><path fill="none" stroke="#b0b2bd" stroke-miterlimit="20" d="M23.56 18.73h3.99"/></g><g><path fill="none" stroke="#b0b2bd" stroke-miterlimit="20" d="M30.38 11.9h3.99"/></g><g><path fill="none" stroke="#b0b2bd" stroke-miterlimit="20" d="M38.85 20.37h3.99"/></g><g><path fill="none" stroke="#b0b2bd" stroke-miterlimit="20" d="M32.03 27.2h3.99"/></g><g><path fill="none" stroke="#b0b2bd" stroke-miterlimit="20" d="M25.2 34.02h3.99"/></g><g><path fill="none" stroke="#b0b2bd" stroke-miterlimit="20" d="M18.38 40.85h3.99"/></g></g></g></svg>