<svg xmlns="http://www.w3.org/2000/svg" width="48" height="61" viewBox="0 0 48 61"><g><g><g><path fill="#c6242b" d="M23.742 23.76s5.353 5.93 5.353 10.92a5.352 5.352 0 0 1-5.353 5.35 5.35 5.35 0 0 1-5.352-5.35c0-4.99 5.352-10.92 5.352-10.92"/></g><g><path fill="none" stroke="#b0b2bd" stroke-miterlimit="20" d="M11.362 14.972v0L9.824 10.61v0H2.308v0L.77 14.972v44.632h10.592v0"/></g><g><path fill="none" stroke="#b0b2bd" stroke-miterlimit="20" d="M11.36 14.972v0h24.878v0l1.539-4.362v0h7.515v0l1.539 4.362v44.632H11.36v0"/></g><g><path fill="none" stroke="#b0b2bd" stroke-miterlimit="20" d="M11.36 55.765V14.97"/></g><g><path fill="none" stroke="#222329" stroke-miterlimit="20" d="M11.362 14.97H.77"/></g><g><path fill="none" stroke="#b0b2bd" stroke-miterlimit="20" d="M34.702.77v0H2.308v0L.77 5.13v9.838h35.47v0V5.13v0z"/></g><g><path fill="none" stroke="#b0b2bd" stroke-miterlimit="20" d="M46.832 14.97H36.24"/></g><g><path fill="none" stroke="#b0b2bd" stroke-miterlimit="20" d="M.77 5.13h35.47"/></g><g><path fill="none" stroke="#b0b2bd" stroke-miterlimit="20" d="M18.51 46.68h15.366"/></g><g><path fill="none" stroke="#b0b2bd" stroke-miterlimit="20" d="M18.51 51.8h21.25"/></g></g></g></svg>