<svg xmlns="http://www.w3.org/2000/svg" width="56" height="60" viewBox="0 0 56 60"><g><g><g><path fill="#c6242b" d="M.87 49.253h28.91V24.98H.87z"/></g><g><g><path fill="none" stroke="#b0b2bd" stroke-miterlimit="20" d="M53.56 58.636H39.68c-.802 0-1.451-.65-1.451-1.453V25.86v0h16.783v31.323c0 .802-.65 1.453-1.453 1.453z"/></g><g><path fill="none" stroke="#b0b2bd" stroke-miterlimit="20" d="M38.23 31.25h16.783"/></g><g><path fill="none" stroke="#b0b2bd" stroke-miterlimit="20" d="M2.61 9.825h38.657c.962 0 1.74-.778 1.74-1.74V2.61c0-.96-.778-1.74-1.74-1.74H2.61C1.648.87.87 1.65.87 2.61v5.475c0 .962.778 1.74 1.74 1.74z"/></g><g><path fill="none" stroke="#b0b2bd" stroke-miterlimit="20" d="M40.259 58.627v0H18.14v0h4.116v0H3.618a2.748 2.748 0 0 1-2.748-2.75V20.25c0-1.242.28-2.467.82-3.583L4.993 9.82v0"/></g><g><path fill="none" stroke="#b0b2bd" stroke-miterlimit="20" d="M38.88 9.82v0l3.303 6.846a8.23 8.23 0 0 1 .82 3.583v5.602"/></g><g><path fill="none" stroke="#fff" stroke-miterlimit="20" d="M5.76 32.82v20.4"/></g></g></g></g></svg>