<svg xmlns="http://www.w3.org/2000/svg" width="40" height="66" viewBox="0 0 40 66"><g><g><g><path fill="none" stroke="#b0b2bd" stroke-miterlimit="20" d="M34.224 9.996v0-6.959A2.307 2.307 0 0 0 31.917.73h-11.38a2.308 2.308 0 0 0-2.307 2.307v6.96z"/></g><g><path fill="none" stroke="#b0b2bd" stroke-miterlimit="20" d="M15.951 65.116v0h20.565a2.205 2.205 0 0 0 2.205-2.205V42.358A75.983 75.983 0 0 0 32.85 13.07H19.619a75.893 75.893 0 0 0-5.139 18.751"/></g><g><path fill="none" stroke="#b0b2bd" stroke-miterlimit="20" d="M19.61 13.07v0h13.184v0-3.08 0H19.61v0z"/></g><g><path fill="#c6242b" d="M16.99 43.635l-.8-2.125H5.87l-.803 2.125a8.475 8.475 0 0 1-1.972 3.041l-.575.57A8.5 8.5 0 0 0 0 53.287V63.41a2.472 2.472 0 0 0 2.473 2.473h17.113a2.472 2.472 0 0 0 2.473-2.473V53.287a8.5 8.5 0 0 0-2.52-6.041l-.575-.57a8.537 8.537 0 0 1-1.974-3.04"/></g><g><path fill="none" stroke="#b0b2bd" stroke-miterlimit="20" d="M17.571 41.505v0-6.96a2.306 2.306 0 0 0-2.307-2.305H6.797a2.306 2.306 0 0 0-2.307 2.306v6.959z"/></g><g><path fill="none" stroke="#fff" stroke-miterlimit="20" d="M4.008 53.37v8.537"/></g></g></g></svg>