<svg xmlns="http://www.w3.org/2000/svg" width="16" height="16" viewBox="0 0 16 16"><g><g><g><path fill="#848798" d="M1.94.01C.767.01 0 .78 0 1.793c0 .99.744 1.783 1.895 1.783h.023c1.196 0 1.94-.793 1.94-1.783C3.836.78 3.114.01 1.94.01z"/></g><g><path fill="#848798" d="M.2 4.98h3.43v10.319H.2z"/></g><g><path fill="#848798" d="M12.051 4.74c-1.85 0-3.091 1.739-3.091 1.739V4.982H5.53v10.32h3.43V9.538c0-.309.022-.617.113-.837.248-.616.812-1.255 1.76-1.255 1.24 0 1.737.947 1.737 2.334v5.52H16V9.384c0-3.17-1.693-4.644-3.949-4.644z"/></g></g></g></svg>