<svg xmlns="http://www.w3.org/2000/svg" width="16" height="16" viewBox="0 0 16 16"><defs><clipPath id="7tiya"><path d="M0 0h15.997v16H0z"/></clipPath></defs><g><g><g><g/><g clip-path="url(#7tiya)"><path fill="#848798" d="M15.997 8.002c0 2.172-.01 2.444-.047 3.297-.037.85-.175 1.432-.372 1.941a4.092 4.092 0 0 1-2.341 2.341c-.506.197-1.09.335-1.941.372-.853.038-1.125.047-3.298.047-2.172 0-2.444-.01-3.297-.047-.85-.037-1.432-.175-1.941-.372a3.938 3.938 0 0 1-1.416-.922 3.946 3.946 0 0 1-.925-1.419c-.197-.506-.335-1.09-.372-1.94C.009 10.445 0 10.173 0 8.001 0 5.829.01 5.557.05 4.7c.038-.85.175-1.432.372-1.941a3.94 3.94 0 0 1 .922-1.416c.4-.41.881-.722 1.42-.925.505-.197 1.09-.335 1.94-.372C5.557.009 5.829 0 8.002 0c2.172 0 2.444.01 3.3.05.85.038 1.432.175 1.941.372.532.2 1.016.516 1.416.922.41.4.722.881.925 1.419.197.506.335 1.09.372 1.941zm-1.435.006c0-2.135-.01-2.388-.047-3.232-.034-.778-.165-1.203-.275-1.485a2.487 2.487 0 0 0-.597-.919 2.46 2.46 0 0 0-.919-.597c-.28-.109-.703-.24-1.484-.275-.841-.037-1.094-.047-3.232-.047-2.135 0-2.388.01-3.232.047-.778.035-1.203.166-1.485.275-.347.128-.66.332-.919.597a2.432 2.432 0 0 0-.6.92c-.11.28-.24.703-.275 1.484-.037.84-.047 1.097-.047 3.232 0 2.135.01 2.388.047 3.232.035.778.166 1.203.275 1.484.128.347.332.66.597.92.256.265.572.468.92.596.28.11.702.241 1.484.275.84.038 1.097.047 3.232.047 2.135 0 2.388-.01 3.232-.047.778-.034 1.203-.165 1.484-.275a2.654 2.654 0 0 0 1.52-1.519c.109-.281.24-.703.274-1.484z"/></g></g><g><path fill="#848798" d="M12.11 8a4.111 4.111 0 0 1-8.22 0c0-2.27 1.841-4.11 4.11-4.11zm-1.434.005a2.672 2.672 0 1 0-2.67 2.671z"/></g><g><path fill="#848798" d="M13.23 3.73a.96.96 0 1 1-1.92 0 .96.96 0 0 1 1.92 0"/></g></g></g></svg>