<svg xmlns="http://www.w3.org/2000/svg" width="101" height="22" viewBox="0 0 101 22"><g><g><g><path fill="#b0b2bd" d="M12.851.69v7.894H4.525V.69H0v20.571h4.525v-8.875h8.326v8.875h4.523V.69z"/></g><g><path fill="#b0b2bd" d="M29.22 5.764h.058l2.586 7.54h-5.319zM26.976.69L19.17 21.261h4.581l1.612-4.581h7.694l1.555 4.581h4.697L31.615.69z"/></g><g><path fill="#b0b2bd" d="M54.816 7.606c-.316-2.044-2.275-3.601-4.494-3.601-4.061 0-5.588 3.457-5.588 7.057 0 3.43 1.527 6.888 5.588 6.888 2.765 0 4.324-1.875 4.668-4.61h4.38c-.462 5.156-3.977 8.413-9.048 8.413-6.336 0-10.112-4.755-10.112-10.69C40.21 4.956 43.986.2 50.322.2c4.494 0 8.327 2.652 8.875 7.406z"/></g><g><path fill="#b0b2bd" d="M76.176 7.606c-.316-2.044-2.275-3.601-4.494-3.601-4.061 0-5.588 3.457-5.588 7.057 0 3.43 1.527 6.888 5.588 6.888 2.765 0 4.324-1.875 4.668-4.61h4.38c-.462 5.156-3.977 8.413-9.048 8.413-6.336 0-10.112-4.755-10.112-10.69C61.57 4.956 65.346.2 71.682.2c4.494 0 8.327 2.652 8.875 7.406z"/></g><g><path fill="#b0b2bd" d="M83.83.7h9.278c5.156 0 7.115 3.254 7.115 6.597 0 3.34-1.959 6.598-7.115 6.598h-4.753v7.375H83.83zm4.525 9.68h3.515c2.073 0 3.976-.462 3.976-3.083 0-2.62-1.903-3.084-3.976-3.084h-3.515z"/></g></g></g></svg>