<svg xmlns="http://www.w3.org/2000/svg" width="61" height="61" viewBox="0 0 61 61"><g><g><g><path fill="none" stroke="#222329" stroke-miterlimit="20" d="M45.673 14.491a9.516 9.516 0 0 1 2.8 6.786 9.517 9.517 0 0 1-2.8 6.787l-8.81 8.81v0L23.29 23.303v0l8.811-8.81a9.596 9.596 0 0 1 13.572 0z"/></g><g><path fill="#c6242b" d="M23.29 23.3l13.572 13.572-8.81 8.81a9.594 9.594 0 0 1-13.572 0 9.512 9.512 0 0 1-2.8-6.785 9.513 9.513 0 0 1 2.799-6.787z"/></g><g><path fill="none" stroke="#c6242b" stroke-miterlimit="20" d="M23.29 23.3v0l13.572 13.572v0l-8.81 8.81a9.594 9.594 0 0 1-13.572 0 9.512 9.512 0 0 1-2.8-6.785 9.513 9.513 0 0 1 2.799-6.787z"/></g><g><path fill="none" stroke="#222329" stroke-miterlimit="20" d="M52.64 52.64l6.972 6.972"/></g><g><path fill="none" stroke="#222329" stroke-miterlimit="20" d="M59.611 54.72v4.891H54.72v0"/></g><g><path fill="none" stroke="#222329" stroke-miterlimit="20" d="M7.523 7.522L.55.55"/></g><g><path fill="none" stroke="#222329" stroke-miterlimit="20" d="M.55 5.441v0V.55v0h4.891v0"/></g><g><path fill="none" stroke="#222329" stroke-miterlimit="20" d="M7.523 52.64L.55 59.612"/></g><g><path fill="none" stroke="#222329" stroke-miterlimit="20" d="M5.441 59.611v0H.55v0-4.891 0"/></g><g><path fill="none" stroke="#222329" stroke-miterlimit="20" d="M52.64 7.522L59.612.55"/></g><g><path fill="none" stroke="#222329" stroke-miterlimit="20" d="M54.72.55v0h4.891v4.891"/></g></g></g></svg>