<svg xmlns="http://www.w3.org/2000/svg" width="61" height="62" viewBox="0 0 61 62"><g><g><g><path fill="none" stroke="#222329" stroke-miterlimit="20" d="M3.15 22.09v0l.601 11.427c.04.768.362 1.496.904 2.04l24.01 24.103a3.096 3.096 0 0 0 4.39 0l2.464-2.473v0"/></g><g><path fill="#c6242b" d="M58.698 41.26L41.1 58.928a3.096 3.096 0 0 1-4.39 0L12.7 34.824a3.126 3.126 0 0 1-.906-2.04l-.98-18.652c-.096-1.85 1.424-3.375 3.265-3.278l18.58.984a3.1 3.1 0 0 1 2.031.908l24.008 24.105zM25.312 19.924a3.85 3.85 0 0 0-5.465 0 3.898 3.898 0 0 0 0 5.493 3.85 3.85 0 0 0 5.465 0z"/></g><g><path fill="none" stroke="#c6242b" stroke-miterlimit="20" d="M58.698 41.26L41.1 58.928a3.096 3.096 0 0 1-4.39 0L12.7 34.824a3.126 3.126 0 0 1-.906-2.04l-.98-18.652c-.096-1.85 1.424-3.375 3.265-3.278l18.58.984a3.1 3.1 0 0 1 2.031.908l24.008 24.105a3.125 3.125 0 0 1 0 4.409zM25.312 19.924a3.85 3.85 0 0 0-5.465 0 3.898 3.898 0 0 0 0 5.493 3.85 3.85 0 0 0 5.465 0 3.9 3.9 0 0 0 0-5.493z"/></g><g><path fill="none" stroke="#222329" stroke-miterlimit="20" d="M22.587 22.675v0s1.566-10.77-6.458-18.826C12.119-.176 6.116-.677 2.722 2.732-.672 6.139-.174 12.165 3.837 16.19a21.708 21.708 0 0 0 4.233 3.313"/></g></g></g></svg>