<svg xmlns="http://www.w3.org/2000/svg" width="61" height="67" viewBox="0 0 61 67"><g><g><g><path fill="#c6242b" d="M30.838 17.36L13.6 24.752v19.634l17.238 7.392 17.238-7.392V24.752z"/></g><g><path fill="none" stroke="#fff" stroke-miterlimit="20" d="M43.698 26.63v0L30.84 32.144v11.754"/></g><g><path fill="none" stroke="#222329" stroke-miterlimit="20" d="M30.832 11.7V5.19"/></g><g><g><path fill="none" stroke="#222329" stroke-miterlimit="20" d="M32.875 3.139a2.043 2.043 0 0 1-2.037 2.047A2.043 2.043 0 0 1 28.8 3.14c0-1.133.913-2.049 2.038-2.049 1.125 0 2.037.916 2.037 2.049z"/></g><g><path fill="none" stroke="#222329" stroke-miterlimit="20" d="M30.832 55.83v6.51"/></g><g><path fill="none" stroke="#222329" stroke-miterlimit="20" d="M28.8 64.389c0-1.131.913-2.049 2.038-2.049 1.125 0 2.038.918 2.038 2.049a2.043 2.043 0 0 1-2.038 2.047A2.043 2.043 0 0 1 28.8 64.39z"/></g><g><path fill="none" stroke="#222329" stroke-miterlimit="20" d="M52.25 46.77l4.58 4.603"/></g><g><path fill="none" stroke="#222329" stroke-miterlimit="20" d="M56.827 54.277a2.056 2.056 0 0 1 0-2.897c.797-.8 2.086-.8 2.883 0 .795.8.795 2.096 0 2.897-.797.8-2.086.8-2.883 0z"/></g><g><path fill="none" stroke="#222329" stroke-miterlimit="20" d="M52.25 22.363l4.58-4.603"/></g><g><path fill="none" stroke="#222329" stroke-miterlimit="20" d="M59.709 17.757c-.797.8-2.086.8-2.883 0a2.058 2.058 0 0 1 0-2.897c.797-.8 2.086-.8 2.883 0 .796.8.796 2.096 0 2.897z"/></g><g><path fill="none" stroke="#222329" stroke-miterlimit="20" d="M9.42 46.77l-4.58 4.603"/></g><g><path fill="none" stroke="#222329" stroke-miterlimit="20" d="M4.84 54.277c.795-.8.795-2.097 0-2.897-.798-.8-2.087-.8-2.884 0a2.058 2.058 0 0 0 0 2.897c.797.8 2.086.8 2.884 0z"/></g><g><path fill="none" stroke="#222329" stroke-miterlimit="20" d="M9.42 22.363L4.84 17.76"/></g><g><path fill="none" stroke="#222329" stroke-miterlimit="20" d="M1.957 17.757c.797.8 2.086.8 2.883 0 .795-.8.795-2.097 0-2.897-.797-.8-2.086-.8-2.883 0a2.056 2.056 0 0 0 0 2.897z"/></g></g></g></g></svg>