<svg xmlns="http://www.w3.org/2000/svg" width="95" height="34" viewBox="0 0 95 34"><g><g><g><g><path fill="#d83535" d="M0 0h34v34H0z"/></g><g><path fill="#fff" d="M14.61 8.95h4.995v16.336H14.61z"/></g><g transform="rotate(90 17.5 18)"><path fill="#fff" d="M14.61 8.95h4.995v16.336H14.61z"/></g></g><g><path fill="#222329" d="M88.596 31.78v-1.343c.266.042.49.098.756.098.728 0 .938-.391 1.12-1.007l.182-.56-2.744-7.202h1.75l1.89 5.399h.028l1.834-5.399h1.666l-2.814 7.622c-.518 1.301-.882 2.476-2.562 2.476-.378 0-.742-.028-1.106-.084zm-4.074-4.562v-4.266h-1.204v-1.188h1.204v-2.168h1.596v2.168h1.442v1.188h-1.442v3.98c.01.578.1.873.77.873.224 0 .448 0 .672-.056v1.231c-.35.042-.686.084-1.036.084-1.68 0-1.96-.643-2.002-1.846zm-3.808 1.776v-7.228h1.596v7.228zm0-8.474v-1.512h1.596v1.512zm-3.374 8.474v-9.986h1.596v9.986zm-3.36-2.426v-1.19c-.49.322-1.246.308-1.96.434-.686.112-1.302.364-1.302 1.204 0 .728.91.924 1.47.924.7 0 1.792-.364 1.792-1.372zm.133 1.75c-.631.616-1.654.882-2.51.882-1.303 0-2.481-.7-2.481-2.114 0-1.806 1.444-2.1 2.79-2.254 1.163-.224 2.173-.07 2.173-1.022 0-.84-.87-.98-1.5-.98-.897 0-1.528.364-1.598 1.148h-1.599c.113-1.862 1.683-2.408 3.295-2.408 1.416 0 2.902.574 2.902 2.1v3.724c0 .392.084.546.378.546h.169c.07 0 .14-.014.224-.028v1.106a4.017 4.017 0 0 1-1.01.182c-.658 0-1.107-.224-1.233-.882zm-12.635-1.96v-4.592h1.593v4.438c0 1.274.504 1.736 1.384 1.736 1.328 0 1.776-.854 1.776-1.974v-4.2h1.593v7.238h-1.566v-1.008h-.027c-.392.728-1.259 1.204-2.055 1.204-1.901 0-2.698-.938-2.698-2.842zm-5.04 1.208l-1.008-.88.84-.965 1.218 1.062c.63-.769.868-1.775.868-2.782 0-1.915-.896-3.803-3.038-3.803s-3.038 1.888-3.038 3.803.896 3.803 3.038 3.803c.378 0 .77-.07 1.12-.238zm1.232 1.074c-.742.434-1.568.602-2.352.602-2.982 0-4.788-2.366-4.788-5.236 0-2.842 1.806-5.236 4.788-5.236s4.788 2.394 4.788 5.236c0 1.344-.406 2.912-1.414 3.836l1.288 1.12-.854.952zm23.38-16.96h1.596c.098.938.784 1.26 1.638 1.26.616 0 1.652-.126 1.61-.952-.042-.84-1.204-.938-2.366-1.204-1.176-.252-2.324-.672-2.324-2.142 0-1.582 1.708-2.072 3.024-2.072 1.484 0 2.842.602 3.024 2.226h-1.666c-.154-.77-.756-.966-1.47-.966-.462 0-1.316.112-1.316.742 0 .784 1.176.91 2.352 1.162 1.162.266 2.338.686 2.338 2.114 0 1.722-1.736 2.352-3.234 2.352-1.834 0-3.164-.812-3.206-2.52zm-7.266 0h1.596c.098.938.784 1.26 1.638 1.26.616 0 1.652-.126 1.61-.952-.042-.84-1.204-.938-2.366-1.204-1.176-.252-2.324-.672-2.324-2.142 0-1.582 1.708-2.072 3.024-2.072 1.484 0 2.842.602 3.024 2.226H78.32c-.154-.77-.756-.966-1.47-.966-.462 0-1.316.112-1.316.742 0 .784 1.176.91 2.352 1.162 1.162.266 2.338.686 2.338 2.114 0 1.722-1.736 2.352-3.234 2.352-1.834 0-3.164-.812-3.206-2.52zm-2.94 2.314V6.766h1.596v7.228zm0-8.474V4.008h1.596V5.52zm-9.352 8.474l-2.24-7.228h1.694l1.414 5.397h.028l1.358-5.397h1.61l1.302 5.397h.028l1.47-5.397h1.624l-2.268 7.228h-1.638L64.53 8.625h-.028l-1.33 5.369zM50.46 10.672h1.75c0 1.526 1.134 2.142 2.534 2.142 1.54 0 2.114-.77 2.114-1.512 0-.77-.42-1.078-.826-1.232-.714-.266-1.596-.448-2.982-.826-1.722-.448-2.212-1.498-2.212-2.534 0-2.016 1.848-2.94 3.654-2.94 2.072 0 3.836 1.106 3.836 3.192h-1.75c-.098-1.288-.938-1.764-2.156-1.764-.812 0-1.834.294-1.834 1.302 0 .714.476 1.078 1.19 1.288l.196.052.247.064.862.227.384.102c.51.135.988.263 1.195.325 1.302.406 1.946 1.484 1.946 2.548 0 2.24-2.002 3.136-3.976 3.136-2.282 0-4.13-1.092-4.172-3.57z"/></g></g></g></svg>