<?xml version="1.0" standalone="no"?>
<!DOCTYPE svg PUBLIC "-//W3C//DTD SVG 20010904//EN"
 "http://www.w3.org/TR/2001/REC-SVG-20010904/DTD/svg10.dtd">
<svg version="1.0" xmlns="http://www.w3.org/2000/svg"
 width="944.000000pt" height="944.000000pt" viewBox="0 0 944.000000 944.000000"
 preserveAspectRatio="xMidYMid meet">
<metadata>
Created by potrace 1.11, written by Peter Selinger 2001-2013
</metadata>
<g transform="translate(0.000000,944.000000) scale(0.100000,-0.100000)"
fill="#000000" stroke="none">
<path d="M4137 9303 c-3 -2 -50 -6 -105 -8 -90 -3 -132 -7 -217 -21 -16 -3
-43 -7 -60 -10 -16 -2 -55 -9 -85 -15 -30 -7 -62 -13 -70 -14 -8 -2 -15 -4
-15 -5 0 -1 -7 -3 -15 -5 -8 -2 -26 -7 -40 -10 -14 -4 -34 -8 -45 -10 -11 -1
-53 -14 -92 -28 -40 -14 -73 -23 -73 -19 0 4 -4 2 -8 -3 -4 -6 -25 -16 -47
-24 -49 -16 -101 -38 -135 -56 -14 -7 -29 -14 -35 -15 -20 -4 -140 -64 -147
-74 -4 -6 -8 -8 -8 -4 0 9 -155 -80 -223 -128 -26 -19 -49 -34 -52 -34 -5 0
-159 -114 -181 -135 -6 -5 -40 -35 -75 -65 -103 -90 -230 -221 -304 -315 -22
-28 -46 -57 -53 -65 -7 -8 -26 -33 -42 -55 -16 -22 -34 -45 -40 -52 -5 -7 -10
-15 -10 -18 0 -4 -13 -26 -30 -50 -16 -24 -30 -47 -30 -51 0 -4 -6 -15 -14
-23 -24 -28 -163 -307 -172 -346 -1 -5 -12 -36 -24 -68 -12 -31 -20 -61 -18
-66 2 -8 88 -78 212 -173 16 -13 55 -43 87 -68 31 -25 80 -63 109 -85 29 -22
57 -45 64 -50 6 -6 63 -51 126 -100 63 -49 117 -92 120 -95 3 -3 32 -25 65
-50 33 -25 62 -48 65 -51 3 -3 37 -29 75 -59 39 -29 82 -63 96 -74 14 -12 43
-34 65 -51 21 -16 46 -37 55 -45 8 -8 23 -19 32 -25 9 -5 63 -47 120 -92 58
-46 109 -83 115 -83 6 0 16 17 23 38 31 97 146 300 228 402 119 149 315 324
424 379 15 8 27 18 27 23 0 4 4 8 10 8 5 0 31 13 57 28 26 16 53 30 58 31 6 2
27 12 47 22 42 22 136 60 158 64 8 2 16 4 18 5 1 2 5 3 10 4 4 1 40 12 80 25
40 12 89 24 108 27 20 2 39 6 43 8 42 26 450 27 559 2 25 -5 25 -4 6 99 -3 17
-7 44 -8 60 -2 17 -6 46 -9 65 -6 33 -23 150 -32 215 -2 17 -6 46 -9 65 -3 19
-8 53 -10 75 -3 22 -7 51 -10 65 -2 14 -7 43 -10 65 -7 58 -16 112 -27 178 -5
31 -7 62 -4 67 3 6 3 10 -2 10 -4 0 -9 12 -9 28 -1 15 -4 45 -8 67 -4 22 -9
58 -12 80 -3 22 -7 51 -9 65 -20 127 -34 224 -33 229 1 3 -2 22 -5 41 -7 35
-14 83 -23 150 -2 19 -6 44 -9 55 -2 11 -4 31 -4 45 -2 46 -13 53 -101 65 -66
9 -125 18 -145 22 -11 2 -81 6 -155 9 -74 3 -140 7 -147 9 -6 2 -13 1 -16 -2z"/>
<path d="M6287 9304 c-1 -1 -40 -5 -87 -8 -47 -4 -92 -9 -100 -11 -8 -2 -33
-6 -55 -10 -73 -10 -105 -17 -109 -24 -2 -3 -7 -31 -10 -61 -4 -30 -11 -80
-16 -112 -6 -31 -10 -60 -9 -65 1 -4 0 -10 -1 -13 -4 -11 -12 -62 -24 -160 -4
-23 -12 -83 -21 -140 -11 -69 -18 -117 -20 -140 -2 -14 -5 -38 -9 -55 -3 -16
-8 -53 -11 -81 -3 -28 -8 -61 -10 -74 -7 -38 -17 -102 -21 -140 -11 -91 -13
-105 -14 -105 -1 0 -4 -13 -6 -30 -1 -16 -5 -45 -8 -63 -3 -18 -8 -52 -11 -75
-3 -23 -8 -53 -10 -67 -3 -14 -7 -43 -10 -65 -4 -38 -11 -90 -20 -145 -3 -14
-7 -43 -10 -65 -3 -22 -8 -52 -11 -67 -8 -41 0 -46 58 -36 76 13 332 17 408 7
105 -15 113 -17 165 -28 82 -18 87 -20 165 -45 144 -46 269 -107 404 -196 157
-103 157 -103 275 -220 105 -103 150 -159 223 -270 57 -89 140 -253 159 -318
3 -9 23 2 60 30 31 24 92 70 135 103 44 33 84 65 89 71 6 6 71 57 145 114 74
57 137 107 140 110 3 3 23 19 45 36 67 49 190 148 197 159 4 5 8 7 8 2 0 -6
38 24 76 61 7 6 17 12 22 12 6 0 12 3 14 8 3 7 43 41 98 82 18 14 38 30 44 35
6 6 29 23 51 40 22 16 45 34 52 40 14 12 23 19 83 65 60 46 69 53 83 65 7 6
26 21 44 33 24 17 31 28 27 46 -11 64 -157 390 -190 427 -8 8 -14 20 -14 25 0
9 -49 86 -70 111 -5 7 -10 15 -10 18 0 8 -141 196 -184 244 -59 68 -261 267
-316 311 -30 25 -57 47 -60 50 -23 25 -241 173 -330 224 -48 28 -261 133 -320
158 -180 78 -401 140 -610 173 -19 3 -46 7 -60 10 -71 12 -172 18 -328 20 -95
0 -174 0 -175 -1z"/>
<path d="M1010 6388 c-19 -23 -51 -63 -70 -88 -19 -25 -39 -50 -45 -57 -7 -6
-27 -35 -46 -65 -18 -29 -36 -55 -39 -58 -3 -3 -11 -15 -17 -27 -7 -13 -19
-33 -25 -45 -7 -13 -15 -25 -19 -28 -3 -3 -14 -22 -25 -44 -10 -21 -27 -52
-36 -70 -14 -26 -57 -122 -113 -251 -23 -54 -86 -257 -100 -325 -2 -8 -11 -49
-20 -90 -19 -88 -26 -137 -42 -280 -15 -140 -8 -528 12 -635 3 -16 6 -40 6
-52 -1 -12 4 -25 9 -28 5 -3 7 -11 4 -18 -2 -7 5 -53 17 -102 11 -50 22 -97
23 -105 10 -56 65 -222 111 -335 41 -104 136 -298 148 -303 4 -2 7 -8 7 -13 0
-6 8 -22 18 -37 11 -15 40 -60 66 -99 26 -40 52 -78 59 -85 7 -7 24 -31 39
-53 43 -63 123 -147 132 -138 4 4 11 8 14 9 4 0 25 8 47 18 22 10 45 19 50 20
12 3 22 8 134 53 46 19 100 40 120 47 20 7 95 37 166 66 72 28 164 66 205 82
41 17 89 36 105 43 17 6 68 27 115 45 82 32 192 76 313 126 31 13 57 21 57 17
0 -3 6 -1 13 5 6 5 50 25 97 43 47 18 89 36 95 41 5 4 15 8 23 8 7 0 33 9 58
20 l44 21 -27 37 c-16 20 -36 45 -45 56 -41 46 -183 299 -193 344 -2 9 -15 45
-29 80 -13 34 -22 62 -20 62 3 0 1 8 -5 18 -10 19 -46 187 -57 267 -22 166 -5
450 37 610 6 22 12 47 14 55 5 26 45 143 60 175 7 17 14 33 14 38 1 31 128
242 205 341 44 58 50 76 20 76 -8 0 -22 4 -32 9 -29 15 -166 70 -212 86 -3 1
-16 6 -30 12 -14 6 -61 25 -105 42 -44 17 -87 35 -95 40 -9 5 -30 12 -48 16
-18 3 -32 11 -32 16 0 5 -3 8 -7 7 -9 -1 -17 2 -133 49 -47 19 -92 36 -100 38
-8 2 -33 11 -55 21 -22 10 -45 19 -51 20 -6 1 -29 10 -50 19 -22 9 -48 21 -59
26 -11 4 -85 34 -165 65 -80 31 -158 62 -174 70 -16 8 -33 14 -38 14 -4 0 -27
8 -51 19 -53 24 -200 81 -207 81 -3 0 -21 -19 -40 -42z"/>
<path d="M7552 2994 c4 -3 -4 -30 -17 -60 -13 -30 -21 -54 -17 -54 4 0 2 -4
-3 -8 -6 -4 -28 -42 -49 -85 -21 -42 -47 -87 -57 -99 -11 -11 -19 -27 -19 -35
0 -7 -4 -13 -8 -13 -4 0 -16 -13 -25 -30 -10 -16 -23 -35 -30 -42 -7 -7 -28
-33 -48 -58 -79 -97 -193 -203 -312 -288 -45 -32 -89 -61 -97 -65 -8 -4 -33
-18 -55 -32 -22 -14 -49 -29 -60 -34 -11 -5 -54 -25 -95 -44 -41 -19 -93 -40
-115 -46 -22 -7 -47 -15 -55 -18 -8 -4 -17 -7 -20 -8 -3 -1 -12 -4 -20 -8 -8
-3 -37 -11 -65 -17 -27 -6 -59 -13 -70 -15 -11 -3 -30 -7 -43 -9 -12 -3 -27
-8 -32 -11 -6 -3 -10 -1 -10 5 0 6 -5 8 -12 3 -7 -4 -20 -9 -28 -11 -25 -6
-354 -10 -364 -4 -5 3 -25 6 -45 8 -20 2 -47 4 -61 6 -14 2 -24 -1 -24 -7 6
-43 17 -125 19 -150 2 -16 4 -30 5 -30 1 0 3 -13 6 -30 16 -121 32 -230 38
-265 3 -14 8 -47 11 -75 5 -47 8 -66 20 -140 3 -16 7 -50 11 -75 3 -25 7 -56
10 -70 2 -14 6 -45 10 -70 3 -25 8 -56 10 -70 3 -14 6 -38 8 -55 3 -28 22
-156 31 -215 2 -14 7 -43 10 -65 2 -22 7 -53 10 -70 11 -72 14 -92 19 -130 3
-22 8 -51 10 -65 3 -14 7 -47 10 -75 9 -98 15 -112 50 -120 17 -3 51 -9 76
-11 25 -3 52 -7 59 -10 75 -26 546 -25 691 0 14 3 41 7 60 10 19 3 47 8 63 11
15 3 37 7 50 9 53 10 182 45 282 76 91 28 319 121 323 132 2 4 9 8 15 8 14 0
103 44 123 61 8 6 14 8 14 3 0 -5 4 -4 8 1 4 6 26 20 50 33 36 20 120 73 196
124 236 159 506 430 666 668 25 36 47 67 50 70 9 9 41 64 53 93 6 15 14 27 18
27 3 0 14 19 25 43 10 23 21 44 24 47 10 10 60 121 60 133 0 7 6 19 13 26 6 6
12 15 12 19 0 7 18 54 53 143 11 29 7 35 -102 119 -38 29 -76 59 -85 66 -9 7
-97 76 -196 154 -99 77 -191 149 -205 160 -14 11 -86 68 -160 125 -74 58 -142
111 -150 117 -16 14 -97 78 -150 118 -18 14 -38 30 -44 35 -6 6 -27 22 -48 37
-20 15 -43 35 -52 44 -9 8 -16 12 -16 8 0 -4 -6 -1 -12 7 -7 9 -44 40 -83 70
-38 29 -72 56 -75 59 -3 4 -14 10 -25 14 -11 4 -16 4 -13 0z"/>
<path d="M3078 2982 c-1 -4 -36 -32 -75 -62 -40 -30 -73 -58 -73 -62 0 -5 -6
-8 -13 -8 -7 0 -26 -12 -43 -27 -17 -16 -46 -40 -65 -54 -76 -59 -205 -160
-219 -172 -8 -7 -33 -26 -55 -42 -21 -17 -47 -38 -57 -47 -10 -10 -21 -18 -25
-18 -5 0 -28 -18 -52 -40 -25 -22 -47 -40 -50 -40 -3 0 -20 -13 -38 -28 -17
-15 -64 -52 -103 -82 -40 -30 -88 -70 -109 -87 -20 -18 -39 -33 -44 -33 -6 0
-48 -34 -83 -67 -7 -7 -15 -13 -19 -13 -3 0 -16 -9 -28 -20 -12 -11 -62 -52
-112 -90 -49 -39 -100 -78 -112 -88 l-22 -17 28 -80 c15 -44 36 -98 46 -120
10 -22 19 -42 19 -45 4 -15 61 -127 72 -140 7 -8 13 -19 14 -25 6 -31 196
-321 240 -365 3 -3 30 -34 59 -70 80 -95 341 -348 341 -331 0 3 4 1 8 -5 10
-16 199 -154 210 -154 5 0 17 -9 27 -20 10 -11 22 -20 26 -20 4 0 44 -22 88
-50 45 -27 81 -47 81 -45 0 3 23 -9 50 -25 28 -17 53 -30 55 -30 2 0 32 -13
67 -29 346 -160 733 -242 1113 -235 157 2 285 10 315 19 8 2 35 7 60 11 25 3
52 8 60 9 8 2 22 4 31 4 9 1 16 7 16 14 0 12 10 76 17 113 2 12 7 45 11 75 4
30 11 74 16 99 5 25 11 68 13 97 2 29 7 60 9 70 3 10 8 43 12 74 3 31 8 67 11
80 2 13 7 44 10 69 3 25 7 54 8 65 2 11 7 38 10 60 4 22 9 56 11 75 2 19 6 46
9 60 5 30 15 97 22 165 3 28 8 54 11 58 3 5 7 30 9 55 6 60 10 97 19 147 4 22
8 54 10 70 1 17 4 30 5 30 2 0 5 22 13 95 3 25 8 62 11 83 3 20 8 53 11 73 3
20 8 40 10 45 3 4 -7 6 -22 5 -16 -2 -28 -4 -28 -5 0 -5 -105 -12 -220 -15
-116 -3 -172 1 -295 20 -66 10 -75 12 -135 29 -33 9 -67 18 -75 20 -8 2 -16 4
-17 5 -2 2 -6 3 -10 5 -5 1 -17 5 -28 9 -11 4 -45 17 -75 29 -103 38 -310 148
-318 169 -2 4 -8 8 -14 8 -19 0 -159 113 -252 205 -56 55 -146 161 -146 171 0
5 -9 15 -20 22 -11 7 -20 17 -20 22 0 6 -16 32 -35 59 -19 26 -35 51 -35 54 0
3 -15 32 -33 64 -19 33 -46 91 -62 131 -26 67 -38 83 -47 64z"/>
</g>
</svg>
